<svg xmlns="http://www.w3.org/2000/svg" viewBox="0 0 841.9 595.3">
  <g fill="#61DAFB">
    <path d="M666.3 296.5c0-55.3-4.2-107.8-11.7-157.1 10.4-1.4 20.8-3.2 31.2-5.4-1.5 55.7-4.8 108.2-9.9 157.1-10.4-1.3-20.8-2.6-31.2-3.9 7.4-49.2 11.7-101.8 11.7-157.1 0 0 0 .1 0 .2-1.4 54.7-4.9 106.6-10 154.4-11.8-1.3-23.7-2.7-35.6-4-7.5 50.3-12.1 102.8-12.1 158.3 0 55.5 4.2 107.9 12 157.1 10.4 1.4 20.8 3.2 31.2 5.4 7.7-50.2 11.9-102.6 11.9-157.1 0-.1-.1-.1-.1-.2-2.4 54.2-6.2 106.2-12.3 155.1-10.3 1.2-20.7 2.3-31.1 3.4-7.6 50.3-12.3 102.8-12.3 158.2s4.2 107.8 11.8 157.1c10.3-1.3 20.7-2.8 31.1-4.5 7.6-49.2 11.7-101.8 11.7-157.1s-4.2-107.8-11.7-157.1c10.3-1.3 20.7-2.8 31.1-4.5 7.7-50.3 11.9-102.7 11.9-157.1 0-55.5-4.2-107.9-12-157.1-10.4-1.3-20.8-2.6-31.2-3.9 2.4 54.7 6.2 106.8 12.3 155.7 10.3-1.4 20.7-3 31.1-4.7 7.6-49.2 11.7-101.8 11.7-157.1s-4.2-107.8-11.7-157.1c10.4-1.4 20.8-3.2 31.2-5.4 7.7-50.2 11.9-102.6 11.9-157.1 0-55.3-4.2-107.8-11.7-157.1-10.4-1.3-20.8-2.6-31.2-3.9 1.5 55.7 4.8 108.2 9.9 157.1-10.4 1.3-20.8 2.6-31.2 3.9-7.7-50.2-11.9-102.6-11.9-157.1 0 0 0 .1 0 .2 1.4 54.7 4.9 106.6 10 154.4 11.8 1.3 23.7 2.7 35.6 4 7.5-50.3 12.1-102.8 12.1-158.3 0-55.5-4.2-107.9-12-157.1-10.4-1.4-20.8-3.2-31.2-5.4-7.7 50.3-12 102.7-12 157.1 0 .1.1 .1.1 .2 2.4-54.2 6.2-106.2 12.3-155.1 10.3-1.2 20.7-2.3 31.1-3.4 7.6-50.3 12.3-102.8 12.3-158.2s-4.2-107.8-11.8-157.1c-10.3 1.3-20.7 2.8-31.1 4.5 7.7 50.2 11.9 102.6 11.9 157.1s-4.2 107.8-11.7 157.1c10.4 1.4 20.8 3.2 31.2 5.4-7.7 50.2-11.9 102.6-11.9 157.1z"></path>
    <circle cx="420.9" cy="296.5" r="45.7"></circle>
    <path d="M520.5 78.1C503.8 44.5 466 0 420.9 0c-45.1 0-83 44.5-99.7 78.1 16.3 4.7 34.8 8.6 54.3 11.4 5.5-13.3 12.5-25.1 20.9-35.1 8.3 10 15.3 21.9 20.8 35.2 19.5-2.9 37.9-6.7 54.2-11.4zM286.5 141.6c-21.2 0-41.7 2.3-61.1 6.6 12.1 29.7 29.1 59.8 49.8 88.5 22.5-17.6 45.6-32.1 68.9-43.6-15.7-19.3-32.4-36.2-49.8-51.5zm34.3 190.2c16.1 10.3 32.4 21.7 47.6 34.1 15.3-12.4 31.6-23.8 47.6-34.1-16.3-10.3-32.4-21.7-47.6-34.1-15.3 12.4-31.6 23.8-47.6 34.1zM544.6 141.6c-15.7 19.3-32.4 36.2-49.8 51.5 23.3 11.5 46.4 25.9 68.9 43.6 20.7-28.6 37.7-58.7 49.8-88.5-19.4-4.3-39.9-6.6-61.1-6.6zM420.9 512c-26.8 0-50.6-44.6-66.4-78.1-19.5 2.9-38 6.7-54.3 11.4 16.7 33.6 54.6 78.1 99.7 78.1 45.1 0 83-44.5 99.7-78.1-16.3-4.7-34.8-8.6-54.3-11.4-5.5 13.3-12.5 25.1-20.9 35.1-8.3-10-15.3-21.9-20.8-35.2-19.5 2.9-37.9 6.7-54.2 11.4zm125.1-124.3c-22.5-17.6-45.6-32.1-68.9-43.6 15.7-19.3 32.4-36.2 49.8-51.5 29.8-12.4 60.9-30.3 89.4-51.8 18.7-14.7 35.8-32.3 49.8-51.8-28.4 21.5-59.5 39.4-89.4 51.8-17.6 22.1-36.7 43.8-54.5 66.2-19.3 23.3-36.1 45.4-51.5 69-20.7 28.6-37.7 58.7-49.8 88.5 19.4 4.3 39.9 6.6 61.1 6.6zM341.2 370.6c-29.8 12.4-60.9 30.3-89.4 51.8-18.7 14.7-35.8 32.3-49.8 51.8 28.4-21.5 59.5-39.4 89.4-51.8 17.6-22.1 36.7-43.8 54.5-66.2 19.3-23.3 36.1-45.4 51.5-69 20.7-28.6 37.7-58.7 49.8-88.5-19.4-4.3-39.9-6.6-61.1-6.6-26.8 0-50.6 44.6-66.4 78.1-19.5 2.9-38 6.7-54.3 11.4 16.7 33.6 54.6 78.1 99.7 78.1 45.1 0 83-44.5 99.7-78.1-16.3-4.7-34.8-8.6-54.3-11.4-5.5 13.3-12.5 25.1-20.9 35.1-8.3-10-15.3-21.9-20.8-35.2z"></path>
  </g>
</svg>
